<svg width="22" height="19" viewBox="0 0 22 19" fill="none" xmlns="http://www.w3.org/2000/svg">
<path d="M21.1959 7.15784C21.126 6.94823 20.9399 6.79547 20.7159 6.76382L14.4228 5.87364L11.6083 0.32269C11.5082 0.125085 11.3014 0 11.0751 0C10.8487 0 10.642 0.125085 10.5418 0.32269L7.72722 5.87364L1.43425 6.76382C1.21027 6.79547 1.02412 6.94823 0.954185 7.1578C0.884206 7.3674 0.942568 7.59747 1.10469 7.75127L5.65821 12.0721L4.58343 18.1732C4.54513 18.3905 4.63687 18.6099 4.82001 18.7395C4.92361 18.8127 5.04632 18.85 5.16963 18.85C5.26431 18.85 5.35931 18.828 5.44629 18.7835L11.075 15.9029L16.7035 18.7835C16.904 18.886 17.1467 18.8689 17.3299 18.7394C17.513 18.6099 17.6048 18.3904 17.5665 18.1732L16.4914 12.0721L21.0454 7.75123C21.2075 7.59747 21.2659 7.3674 21.1959 7.15784Z" fill="#FFCA56"/>
</svg>
